<?xml version="1.0" encoding="UTF-8" standalone="no"?>
<!-- Created with Inkscape (http://www.inkscape.org/) -->

<svg
   width="225.95415mm"
   height="280.20999mm"
   viewBox="0 0 225.95415 280.20999"
   version="1.1"
   id="svg1"
   xml:space="preserve"
   xmlns="http://www.w3.org/2000/svg"
   xmlns:svg="http://www.w3.org/2000/svg"
   xmlns:rdf="http://www.w3.org/1999/02/22-rdf-syntax-ns#"
   xmlns:cc="http://creativecommons.org/ns#"
   xmlns:dc="http://purl.org/dc/elements/1.1/"><title
     id="title8">logo_negro</title><defs
     id="defs1"><rect
       x="-948.1618"
       y="698.33496"
       width="818.33057"
       height="95.406326"
       id="rect4" /></defs><g
     id="layer1"
     transform="translate(706.86253,279.58734)"><text
       xml:space="preserve"
       transform="matrix(0.26458333,0,0,0.26458333,70.66171,-158.98885)"
       id="text4"
       style="text-align:center;writing-mode:lr-tb;direction:ltr;white-space:pre;shape-inside:url(#rect4);display:inline;fill:#ffffff;fill-opacity:1" /><path
       style="fill:#ffffff;fill-opacity:1"
       d="m -694.6917,-4.2884544 v -4.894792 h 3.175 3.175 v 0.79375 0.79375 h -2.38125 -2.38125 v 1.32292 1.322914 h 1.98437 1.98438 v 0.79375 0.79375 h -1.98438 -1.98437 v 1.984375 1.98437503 h -0.79375 -0.79375 z m 11.4832,4.39064603 c -1.93889,-0.880538 -2.85326,-2.98090903 -2.45553,-5.64053303 0.24019,-1.606195 1.09051,-2.785425 2.45553,-3.405345 3.42723,-1.5564596 6.77305,0.67783 6.77305,4.52294 0,3.84510903 -3.34582,6.079397 -6.77305,4.52293803 z m 4.03731,-1.91692703 c 2.02189,-1.899463 0.98324,-5.606321 -1.67002,-5.960181 -0.79302,-0.10577 -1.1862,-0.003 -1.77787,0.46298 -2.72853,2.150685 -1.33279,6.66100103 1.92209,6.211216 0.49381,-0.06824 1.18042,-0.389546 1.5258,-0.714015 z m 6.17532,-2.473719 v -4.894792 h 2.66619 c 2.59406,0 2.68711,0.0209 3.43958,0.7734 0.64615,0.64615 0.7734,0.98853 0.7734,2.08098 0,1.375491 -0.72381,2.70187 -1.47441,2.70187 -0.53296,0 -0.50185,0.09534 0.68066,2.0858 0.58208,0.97979103 1.05833,1.86381003 1.05833,1.96448603 0,0.100676 -0.40328,0.183048 -0.89619,0.183048 -0.83794,0 -0.96997,-0.128964 -2.03156,-1.98437503 -0.99117,-1.73235 -1.23019,-1.984375 -1.88193,-1.984375 h -0.74657 v 1.984375 1.98437503 h -0.79375 -0.79375 z m 4.78543,-0.94897 c 0.40546,-0.405456 0.50702,-0.739262 0.38239,-1.256772 -0.24201,-1.00495 -0.8522,-1.36613 -2.30797,-1.36613 h -1.27235 v 1.5875 1.587497 h 1.32292 c 0.98845,0 1.4625,-0.139582 1.87501,-0.552095 z m 5.79791,0.94897 v -4.894792 h 3.17499 3.175 v 0.80535 c 0,0.49079 -0.12917,0.78857 -0.33072,0.7624 -0.18191,-0.0236 -1.25347,-0.0288 -2.38125,-0.0116 l -2.05052,0.0314 v 1.19063 1.19062 h 2.11666 c 2.08139,0 2.11667,0.01103 2.11667,0.661459 0,0.650434 -0.0353,0.661458 -2.11667,0.661458 h -2.11666 v 1.455208 1.45520903 h 2.38124 2.38125 v 0.79375 0.79375 h -3.175 -3.17499 z m 10.68212,4.38736403 c -1.35405,-0.614875 -1.50323,-0.845944 -1.00519,-1.55699503 l 0.39445,-0.563159 0.85129,0.519052 c 0.95195,0.58043203 2.56283,0.68802203 3.04732,0.20353 0.41492,-0.414915 0.40665,-1.395803 -0.0147,-1.745499 -0.18272,-0.15164 -0.68874,-0.361708 -1.12448,-0.466816 -1.24633,-0.300633 -2.73309,-1.127753 -3.03239,-1.686989 -0.84515,-1.57918 0.24076,-3.80958 2.017,-4.14281 0.99174,-0.18605 2.55402,0.16905 3.37055,0.76611 0.40904,0.2991 0.43976,0.45592 0.18322,0.93527 -0.29042,0.54264 -0.35274,0.5529 -1.0787,0.17749 -1.49108,-0.77107 -3.178,-0.40272 -3.178,0.69393 0,0.71344 0.67,1.215373 2.22624,1.667782 3.10539,0.902762 3.8063,3.940757 1.20967,5.24310003 -1.1851,0.594383 -2.49326,0.579497 -3.86628,-0.044 z m 10.74912,-3.59361403 v -4.101042 h -1.4552 c -1.44051,0 -1.45521,-0.008 -1.45521,-0.79375 v -0.79375 h 3.70416 3.70417 v 0.79375 c 0,0.78573 -0.0147,0.79375 -1.45521,0.79375 h -1.45521 v 4.101042 4.10104203 h -0.79375 -0.79375 z m 7.67292,-0.79375 v -4.894792 h 2.58696 c 2.92877,0 3.57127,0.27015 4.19546,1.76405 0.50891,1.21799 0.0892,2.792536 -0.94884,3.56003 l -0.76087,0.562531 1.16781,1.821901 c 0.6423,1.00204603 1.16781,1.88740203 1.16781,1.96745803 0,0.08006 -0.43866,0.108604 -0.97481,0.06344 -0.89895,-0.07573 -1.06516,-0.231384 -2.13599,-2.00034703 -1.01689,-1.679857 -1.25742,-1.918229 -1.93561,-1.918229 h -0.77442 v 1.984375 1.98437503 h -0.79375 -0.79375 z m 4.7625,-0.926042 c 1.22876,-1.22876 0.23681,-2.64583 -1.85208,-2.64583 h -1.32292 v 1.5875 1.587497 h 1.32292 c 0.97014,0 1.46402,-0.141111 1.85208,-0.529167 z m 7.9375,3.818918 c 0,-1.986971 -0.0127,-2.02351 -1.70677,-4.894788 l -1.70677,-2.89288 h 1.02678 c 1.00525,0 1.05006,0.0422 2.13728,2.01174 l 1.11051,2.011744 1.16599,-2.011744 c 1.10077,-1.8992 1.21768,-2.01174 2.08982,-2.01174 h 0.92383 l -0.39334,0.76065 c -0.21634,0.41835 -0.99308,1.7578 -1.72608,2.976558 -1.27402,2.118279 -1.33276,2.300439 -1.33324,4.134147 l -5.1e-4,1.91822903 h -0.79375 -0.79375 z m 12.96458,-2.884732 v -4.902936 h 3.175 3.175 v 0.8162 0.8162 l -2.29193,-0.0792 -2.29193,-0.0792 -0.0199,1.18125 -0.0199,1.181239 2.17949,0.07685 c 2.11802,0.07468 2.1795,0.0952 2.1795,0.727604 0,0.635905 -0.0473,0.650758 -2.07257,0.650758 -1.13991,0 -2.12218,0.04955 -2.18281,0.110114 -0.0606,0.06056 -0.069,0.715406 -0.0186,1.455208 l 0.0917,1.34509503 h 2.2983 2.29831 l -0.0315,0.727604 -0.0315,0.727604 -3.21842,0.07429 -3.21842,0.07429 z m 9.81414,-0.0081 -0.0208,-4.894792 h 0.75971 c 0.6629,0 1.05884,0.40216 3.107,3.15575 1.29101,1.735669 2.43033,3.164419 2.53182,3.175004 0.1015,0.01059 0.16103,-1.409564 0.1323,-3.155884 l -0.0522,-3.17514 0.85989,1.4e-4 0.8599,1.3e-4 v 4.894792 4.89479203 h -0.60365 c -0.5887,0 -1.11362,-0.592537 -4.75416,-5.36660303 l -0.99219,-1.301111 v 3.333855 3.33385903 h -0.90334 -0.90334 z m 14.37444,4.39305403 c -2.08103,-0.945158 -3.04786,-3.04883703 -2.53949,-5.52559003 0.36743,-1.790116 1.08643,-2.784186 2.51338,-3.474966 1.8317,-0.88671 4.29341,-0.61459 5.43522,0.60081 l 0.58652,0.62432 -0.66441,0.43533 c -0.6246,0.40926 -0.7164,0.40364 -1.53221,-0.0938 -1.31007,-0.79875 -2.42112,-0.69075 -3.55158,0.34523 -0.79621,0.72968 -0.97758,1.09866 -1.0839,2.205146 -0.2752,2.864097 2.0426,4.63497203 4.44228,3.394048 0.59898,-0.309744 0.78061,-0.586777 0.78061,-1.190625 0,-0.756299 -0.0464,-0.786955 -1.19062,-0.786955 -1.14653,0 -1.19063,-0.0294 -1.19063,-0.79375 v -0.79375 h 1.98438 1.98437 v 1.943368 c 0,2.16234403 -0.1929,2.48453103 -1.91941,3.20591603 -1.29068,0.539281 -2.73268,0.505575 -4.05451,-0.09477 z m 9.94267,-4.39305403 v -4.894792 h 0.92604 0.92604 v 4.894792 4.89479203 h -0.92604 -0.92604 z m 5.81464,4.82864603 c -0.003,-0.03638 -0.0332,-2.24436803 -0.0661,-4.90664003 l -0.06,-4.840498 0.77074,0.078 c 0.64137,0.0649 1.18538,0.6234 3.24114,3.32749 l 2.47041,3.249493 v -3.315643 -3.31564 h 0.79375 0.79375 v 4.894792 4.89479203 h -0.64831 c -0.35657,0 -0.74352,-0.169972 -0.85989,-0.377715 -0.11638,-0.207744 -1.22362,-1.69117003 -2.46055,-3.29650303 l -2.24895,-2.918786 -0.0741,3.296501 -0.0741,3.29650303 h -0.78584 c -0.43222,0 -0.78863,-0.02977 -0.79204,-0.06615 z m 11.91244,-4.82864603 v -4.894792 h 3.24989 3.24988 l -0.0326,0.7276 -0.0326,0.72761 h -2.29163 -2.29163 l 4e-4,1.25677 4.1e-4,1.25677 h 2.11666 c 2.08139,0 2.11667,0.01103 2.11667,0.661459 0,0.650434 -0.0353,0.661458 -2.11667,0.661458 h -2.11666 v 1.455208 1.45520903 h 2.24895 2.24896 v 0.79375 0.79375 h -3.175 -3.175 z m 10.05417,0 v -4.894792 h 3.175 3.175 v 0.81011 0.81011 l -2.31511,-0.0569 -2.3151,-0.0569 -0.0806,1.23118 -0.0806,1.23118 h 2.13116 c 2.09685,0 2.13116,0.01065 2.13116,0.661459 0,0.650434 -0.0353,0.661458 -2.11666,0.661458 h -2.11667 v 1.455208 1.45520903 h 2.38125 2.38125 v 0.79375 0.79375 h -3.175 -3.175 z m 10.04797,4.82864603 c -0.003,-0.03638 -0.0332,-2.23904503 -0.0661,-4.89481003 l -0.06,-4.828668 2.59708,2e-5 c 1.4284,10e-6 2.82615,0.12261 3.10612,0.27245 0.68135,0.36464 1.30826,1.62876 1.30826,2.63799 0,0.83115 -0.64778,2.377874 -0.99898,2.385299 -0.1054,0.0022 -0.36028,0.110792 -0.56639,0.241254 -0.30481,0.192942 -0.16905,0.583425 0.72761,2.092726 0.60629,1.02053803 1.10234,1.92400503 1.10234,2.00770403 0,0.0837 -0.40802,0.152181 -0.90671,0.152181 -0.84241,0 -0.98906,-0.136031 -2.06786,-1.91822903 -0.92119,-1.521808 -1.30793,-1.935531 -1.87141,-2.00195 l -0.71026,-0.08372 v 2.001949 2.00195003 h -0.79375 c -0.43657,0 -0.79654,-0.02977 -0.79995,-0.06615 z m 4.39836,-5.42801003 c 0.60862,-0.406386 0.92907,-1.364548 0.63816,-1.908118 -0.39493,-0.73794 -1.12094,-1.06439 -2.3671,-1.06439 h -1.07572 v 1.5875 1.587497 l 1.25677,-0.0041 c 0.69122,-0.0022 1.38777,-0.09153 1.54789,-0.198438 z m 6.17028,5.42801003 c -0.0115,-0.03638 -0.0413,-2.23905003 -0.0661,-4.89482203 l -0.0453,-4.828676 0.85989,3e-5 0.8599,3e-5 v 4.894792 4.89479203 h -0.79375 c -0.43656,0 -0.80315,-0.02977 -0.81464,-0.06615 z m 5.57714,-4.82864603 v -4.894792 l 0.7276,7.6e-4 c 0.6136,6.4e-4 1.08,0.45825 2.97656,2.9205 1.23693,1.605859 2.28865,3.034267 2.33716,3.174241 0.0485,0.139975 0.19107,0.254499 0.31682,0.254499 0.12575,0 0.20512,-1.42881 0.17639,-3.17513 l -0.0522,-3.17514 0.85989,1.4e-4 0.8599,1.3e-4 v 4.894792 4.89479203 h -0.61554 c -0.4683,0 -1.13364,-0.666662 -2.78136,-2.78689403 -1.1912,-1.532792 -2.31207,-3.021073 -2.49081,-3.307292 -0.17875,-0.286219 -0.41542,-0.520398 -0.52593,-0.520398 -0.11052,0 -0.20094,1.488282 -0.20094,3.307292 v 3.30729203 h -0.79375 -0.79375 z m 14.41979,4.47871003 c -1.32283,-0.687992 -1.97432,-1.47125403 -2.39188,-2.87567503 -0.75615,-2.543218 0.18605,-5.125047 2.25059,-6.167097 1.93227,-0.97528 4.4402,-0.66174 5.68194,0.71037 0.40012,0.44212 0.3822,0.50538 -0.2629,0.92807 -0.64589,0.4232 -0.72488,0.42411 -1.17855,0.0135 -0.26744,-0.24203 -0.9594,-0.50352 -1.5377,-0.58108 -1.32733,-0.17803 -2.47091,0.45318 -3.06032,1.68917 -1.48763,3.11959 1.18872,6.20473403 4.08383,4.707614 0.59898,-0.309744 0.78061,-0.586777 0.78061,-1.190625 0,-0.756299 -0.0464,-0.786955 -1.19062,-0.786955 -1.14653,0 -1.19063,-0.0294 -1.19063,-0.79375 v -0.79375 h 1.98438 1.98437 v 1.943368 c 0,2.16234403 -0.19289,2.48453103 -1.91941,3.20591603 -1.24864,0.521713 -3.02077,0.517708 -4.03371,-0.0091 z M -579.86254,-20.376872 c -1.60856,-0.37039 -4.14548,-1.65289 -5.52227,-2.7917 l -0.89205,-0.73787 1.25513,-1.74473 1.25513,-1.74474 1.05382,0.76338 c 3.11131,2.25382 7.63399,2.48298 9.05189,0.45864 0.62336,-0.88997 0.50714,-1.94623 -0.31467,-2.85984 -0.55532,-0.61736 -1.44808,-1.04737 -3.77031,-1.81607 -3.68538,-1.21992 -4.99525,-1.86711 -6.18323,-3.0551 -2.47532,-2.47532 -2.23455,-7.24234 0.48645,-9.63141 1.98356,-1.74159 2.85854,-2.01948 6.37106,-2.02348 3.14738,-0.004 3.21304,0.009 5.175,0.97805 1.09294,0.53992 2.19428,1.21054 2.44743,1.49026 0.44003,0.48623 0.42201,0.58847 -0.40994,2.32562 -0.47861,0.99937 -0.88331,1.84884 -0.89933,1.88771 -0.016,0.0389 -0.70684,-0.33742 -1.53514,-0.8362 -3.74458,-2.25487 -7.96751,-1.77495 -7.89154,0.89684 0.0419,1.47274 0.81075,1.99093 4.80613,3.23912 3.35527,1.04821 4.70923,1.76623 6.02759,3.19649 1.33034,1.44324 1.76245,2.86774 1.5936,5.25338 -0.21145,2.98741 -1.93628,5.19051 -4.961,6.33664 -1.79544,0.68033 -5.1461,0.87498 -7.14375,0.41501 z m -126.99999,-0.33334 c 0,-0.0825 1.3222,-3.62457 2.93822,-7.87135 1.61602,-4.24679 3.62988,-9.5669 4.47524,-11.82247 0.84535,-2.25558 1.62089,-4.31306 1.72341,-4.57219 0.16626,-0.42025 0.5177,-0.46312 3.25359,-0.39687 l 3.0672,0.0743 0.87726,2.24895 c 0.48248,1.23693 2.53279,6.59474 4.55622,11.90625 2.02344,5.31151 3.76087,9.86956 3.86097,10.12899 0.16927,0.43871 -0.0376,0.46646 -2.9585,0.39687 l -3.14049,-0.0748 -0.79264,-2.32083 -0.79265,-2.32082 -4.74179,0.0719 -4.74178,0.0719 -0.77147,2.3151 -0.77147,2.31511 h -3.02066 c -1.66137,0 -3.02066,-0.0675 -3.02066,-0.14993 z m 15.31505,-10.49955 c -0.30372,-0.76399 -1.0877,-2.81781 -1.74216,-4.56406 -0.65447,-1.74625 -1.22093,-3.20787 -1.2588,-3.24804 -0.0379,-0.0402 -0.638,1.44811 -1.33363,3.30729 -0.69563,1.85918 -1.48454,3.94588 -1.75314,4.6371 l -0.48835,1.25677 h 3.56415 3.56416 z m 12.73078,-1.78594 v -12.43542 h 2.77812 2.77813 v 10.05417 10.05417 h 5.22552 5.22552 v 2.38125 2.38125 h -8.00365 -8.00364 z m 19.57916,-0.0251 v -12.46055 l 6.01928,0.10694 c 5.41682,0.0962 6.16618,0.16486 7.48713,0.68559 3.56039,1.40354 5.27875,3.8262 5.32155,7.50271 0.0328,2.81478 -0.56823,4.45865 -2.26055,6.18308 -1.89957,1.93561 -3.56481,2.51476 -7.77001,2.7023 l -3.24115,0.14455 v 3.79796 3.79797 h -2.77812 -2.77813 z m 11.93327,-0.84339 c 2.41975,-1.62552 1.7649,-5.75261 -1.03621,-6.5306 -0.53635,-0.14896 -1.95745,-0.27151 -3.15799,-0.27232 l -2.18282,-10e-4 v 3.70417 3.70417 h 2.739 c 2.41307,0 2.84598,-0.0719 3.63802,-0.60394 z m 10.8209,0.86852 v -12.43542 h 2.77241 2.77241 l 0.0719,5.09323 0.0719,5.09323 h 4.7625 4.7625 l -0.0578,-5.09323 -0.0578,-5.09323 h 2.90203 2.90202 v 12.43542 12.43542 l -2.84427,-5.9e-4 -2.84427,-5.9e-4 v -5.02578 -5.02577 l -4.82864,-7.2e-4 -4.82865,-7.2e-4 v 5.02708 5.02709 h -2.77812 -2.77813 z m 24.25582,11.45154 c 0.23279,-0.55027 2.36135,-6.12019 4.73013,-12.37758 l 4.30688,-11.37708 3.02992,-0.0742 3.02993,-0.0742 1.47137,3.9107 c 0.80925,2.15088 2.90864,7.69332 4.66532,12.31654 1.75668,4.62321 3.19396,8.46298 3.19396,8.53281 0,0.0698 -1.35292,0.12697 -3.0065,0.12697 h -3.0065 l -0.8518,-2.38125 -0.85179,-2.38125 h -4.71861 -4.71862 l -0.77124,2.3151 -0.77124,2.31511 -3.07724,0.0744 -3.07723,0.0745 z m 15.38493,-8.62247 c -0.22753,-0.92008 -3.27897,-8.90367 -3.40503,-8.90871 -0.0795,-0.003 -0.39226,0.73836 -0.69509,1.64787 -0.30282,0.90951 -1.03434,2.9931 -1.62559,4.63021 l -1.075,2.97656 h 3.44313 c 2.70242,0 3.42473,-0.0744 3.35758,-0.34593 z m 38.9405,4.90272 c 0,-3.50802 -0.0906,-4.83629 -0.35628,-5.22552 -0.19595,-0.28704 -1.87497,-3.26033 -3.73116,-6.60731 -1.85619,-3.34698 -3.66541,-6.59143 -4.0205,-7.2099 l -0.64562,-1.12448 h 3.27692 3.27692 l 2.42348,5.04226 c 1.33292,2.77325 2.52018,4.9825 2.63836,4.90947 0.11818,-0.073 1.27872,-2.33983 2.57898,-5.03731 l 2.3641,-4.90451 3.11817,-0.005 c 2.88866,-0.005 3.09989,0.0291 2.86991,0.45807 -0.13653,0.25466 -2.11046,3.85277 -4.3865,7.9958 l -4.13826,7.53279 0.0777,4.43995 0.0777,4.43995 -2.71197,-3.4e-4 -2.71198,-3.4e-4 z m 17.06562,-7.73177 v -12.43539 l 2.84427,-3e-5 2.84427,-2e-5 v 10.05417 10.05417 h 5.02708 5.02709 v 2.38125 2.38125 h -7.87136 -7.87135 z m 22.88646,12.32811 c 0,-0.059 -1.49749,-4.1369 -3.32774,-9.06198 -4.22575,-11.37116 -5.6681,-15.3269 -5.6681,-15.54518 0,-0.0955 1.33193,-0.14005 2.95983,-0.0989 l 2.95982,0.0748 3.05945,9.04655 c 1.68269,4.97561 3.13525,8.9642 3.22791,8.86354 0.15085,-0.16388 1.37572,-3.66144 5.0677,-14.47051 l 1.17484,-3.43958 2.81377,-0.0751 c 1.54757,-0.0413 2.81377,0.0307 2.81377,0.16005 0,0.12933 -1.9746,5.52094 -4.388,11.98135 -2.4134,6.46041 -4.45135,11.95456 -4.52878,12.20922 -0.12332,0.40561 -0.51421,0.46302 -3.15262,0.46302 -1.65652,0 -3.01185,-0.0483 -3.01185,-0.10729 z m 12.50786,-0.35573 c 0.12034,-0.41531 1.86033,-5.0057 7.47165,-19.71146 l 1.792,-4.69636 h 2.97656 c 2.58962,0 3.00004,0.0602 3.15719,0.46303 1.04014,2.66633 9.1364,24.18025 9.1364,24.27786 0,0.0715 -1.35939,0.12995 -3.02087,0.12995 h -3.02087 l -0.85179,-2.38125 -0.8518,-2.38125 h -4.70577 -4.70578 l -0.3206,0.99218 c -0.17633,0.54571 -0.55131,1.61727 -0.83328,2.38125 l -0.51267,1.38907 h -2.92227 c -2.65783,0 -2.91012,-0.0419 -2.7881,-0.46302 z m 14.82236,-11.1125 c -0.5163,-1.27331 -1.32774,-3.42556 -1.8032,-4.78279 -0.47546,-1.35723 -0.92073,-2.36926 -0.98949,-2.24896 -0.0688,0.1203 -0.39656,1.05216 -0.72843,2.07081 -0.50098,1.5377 -1.7085,4.81147 -2.51296,6.81302 -0.17175,0.42733 0.0898,0.46302 3.39336,0.46302 h 3.57945 z m -104.58855,-26.95641 c -2.27787,-0.28456 -5.64477,-0.98272 -8.20208,-1.7008 -4.78106,-1.34248 -6.79154,-2.44665 -28.70729,-15.76626 -11.12241,-6.759801 -12.15665,-7.381351 -19.31459,-11.607521 -9.26093,-5.4678 -11.68138,-7.15718 -14.95185,-10.43577 -6.05573,-6.070777 -9.77725,-13.137717 -11.29106,-21.441047 -0.41193,-2.25948 -0.46742,-5.36179 -0.54889,-30.69167 -0.099,-30.78466 -0.021,-32.94754 1.42149,-39.39201 2.62488,-11.72716 8.76038,-21.01913 17.96198,-27.2027 5.48927,-3.68885 12.67781,-5.78054 20.92757,-6.08941 3.97548,-0.14885 3.9963,-0.14662 4.43177,0.47511 0.24065,0.34356 0.43753,0.88732 0.43753,1.20835 0,1.14154 -0.54602,1.33096 -4.41402,1.53124 -6.38125,0.33042 -12.15145,1.66409 -16.34182,3.7771 -2.7125,1.36779 -6.17365,3.97079 -8.88546,6.68243 -6.33959,6.3392 -9.95571,13.97481 -11.67877,24.66029 -0.79694,4.94221 -0.81596,11.27526 -0.0444,14.77043 2.22716,10.08854 9.16355,18.39893 19.53632,23.40621 5.77257,2.7866 9.60151,3.76976 22.7134,5.83211 14.71025,2.31375 23.12149,6.13685 31.13173,14.15009 1.23826,1.23872 4.16678,4.51633 6.50782,7.28359 5.09644,6.02428 7.98053,8.78785 11.89608,11.39895 6.30332,4.2034 12.5346,5.88254 20.72567,5.58495 7.46356,-0.27116 13.51628,-2.31281 20.29863,-6.84697 3.38217,-2.26105 7.95079,-6.64834 10.41047,-9.99727 5.54532,-7.55011 9.23984,-17.06463 10.99756,-28.32207 0.5964,-3.81969 0.80737,-10.87023 0.40071,-13.39114 -0.71183,-4.41256 -2.41301,-8.00462 -5.17166,-10.92 -2.36612,-2.50055 -4.93026,-4.29959 -7.59007,-5.32532 -2.6951,-1.03935 -4.29545,-1.33987 -7.1391,-1.34064 -2.80039,-7.5e-4 -5.18806,0.52691 -7.75875,1.71464 -2.45604,1.13476 -3.22277,1.66684 -9.02263,6.26136 -14.97093,11.85965 -26.38713,16.62946 -39.84166,16.64625 -5.08162,0.006 -6.8171,-0.25522 -14.20638,-2.1411 -8.07815,-2.06169 -11.03696,-2.54437 -18.54299,-3.02497 -3.42631,-0.21938 -7.16288,-0.522 -8.30348,-0.67249 -4.51723,-0.596 -8.71898,-2.48343 -11.38371,-5.11358 -1.93391,-1.90882 -2.80226,-3.31684 -3.78522,-6.1377 -0.65002,-1.86541 -0.72717,-2.45371 -0.72481,-5.52719 0.003,-3.95286 0.39201,-5.7621 1.90564,-8.86354 1.25785,-2.57734 3.94096,-5.31047 6.53692,-6.65877 3.48191,-1.80845 7.67015,-2.68853 8.70547,-1.8293 0.56503,0.46893 0.54069,1.95266 -0.0404,2.46156 -0.25466,0.22304 -1.05833,0.48773 -1.78594,0.58821 -7.7837,1.07484 -12.7347,7.22872 -12.22729,15.19802 0.18444,2.8967 0.71298,4.59304 2.05928,6.60914 2.8577,4.27944 7.2888,6.05276 16.25343,6.5046 8.98585,0.45292 13.65262,1.16072 21.03437,3.19027 2.4011,0.66016 4.79324,1.26934 5.31589,1.35372 l 0.95026,0.15344 0.17172,-3.13597 c 0.3041,-5.55333 0.75754,-18.65063 0.64944,-18.75872 -0.0576,-0.0576 -1.16981,0.35305 -2.47155,0.91259 -5.66078,2.43323 -14.73011,4.88195 -17.53589,4.7347 -1.3948,-0.0732 -1.50525,-0.12686 -1.57963,-0.76749 -0.044,-0.37883 0.22544,-1.3794 0.59874,-2.22348 0.37329,-0.84408 0.62754,-1.58586 0.565,-1.6484 -0.0625,-0.0625 -1.01797,0.13437 -2.12319,0.43758 -4.14032,1.13588 -10.94651,1.81952 -12.51986,1.25753 -0.65399,-0.23359 -1.00173,-1.16747 -0.74082,-1.98951 0.0921,-0.29021 1.38278,-1.51173 2.86816,-2.7145 5.22691,-4.23244 12.09197,-11.44499 16.18763,-17.007 l 1.53677,-2.08698 -1.02956,0.19773 c -3.82793,0.73516 -5.32417,0.94541 -7.84319,1.10208 -2.52521,0.15706 -2.90427,0.12319 -3.37344,-0.3014 -1.00653,-0.9109 -0.60797,-1.53973 2.51415,-3.9668 2.28631,-1.77733 7.24215,-6.7635 9.71485,-9.7743 2.01448,-2.45286 5.49869,-7.29581 5.49869,-7.64302 0,-0.0583 -1.13832,0.23242 -2.5296,0.64605 -1.39128,0.41364 -3.52926,0.8966 -4.75107,1.07325 -2.05106,0.29656 -2.26294,0.28367 -2.76207,-0.16804 -0.29732,-0.26908 -0.54059,-0.71966 -0.54059,-1.0013 0,-0.3032 1.41434,-1.93228 3.46743,-3.99389 3.6579,-3.67306 6.73843,-7.32152 8.95359,-10.60424 1.6229,-2.40503 2.98026,-4.68428 2.86079,-4.80375 -0.0485,-0.0484 -1.09567,0.25829 -2.32714,0.68166 -3.28405,1.12901 -4.30182,1.24424 -4.98202,0.56404 -0.72368,-0.72368 -0.58464,-1.04604 1.55578,-3.60703 4.91238,-5.8776 8.99164,-12.56469 12.63142,-20.70656 1.6277,-3.64103 2.02279,-3.5882 3.87199,0.51778 3.25117,7.21892 7.68921,14.43295 12.04921,19.58595 2.53089,2.99122 2.90345,3.88676 1.85122,4.44989 -0.71539,0.38287 -2.21259,0.12583 -4.85469,-0.83346 -1.153,-0.41863 -2.12807,-0.72944 -2.16682,-0.69069 -0.14496,0.14497 3.12836,5.37754 4.57327,7.31061 2.34779,3.14097 5.35798,6.55981 8.00801,9.09515 2.18667,2.09202 2.42144,2.40908 2.34745,3.17022 -0.063,0.64868 -0.25196,0.90505 -0.81081,1.10037 -0.87021,0.30413 -3.50092,-0.0953 -6.80529,-1.03322 -1.23322,-0.35004 -2.29723,-0.58144 -2.36446,-0.51421 -0.15245,0.15246 2.78268,4.42265 4.62333,6.7263 3.37243,4.2207 6.715,7.58186 10.90086,10.96146 1.83168,1.47887 2.17937,1.88306 2.17937,2.53351 0,0.49435 -0.18486,0.87285 -0.51177,1.0478 -0.91258,0.4884 -5.00545,0.30327 -8.34272,-0.37735 -1.74127,-0.35512 -3.19199,-0.61964 -3.22381,-0.58782 -0.13863,0.13864 4.15569,5.83746 6.21715,8.25052 2.98214,3.49079 7.73811,8.21044 11.02053,10.93638 1.45521,1.2085 2.73762,2.44423 2.8498,2.74606 0.28903,0.77763 -0.38891,1.68716 -1.40975,1.89133 -2.45649,0.4913 -9.60834,-0.4424 -14.06755,-1.83656 -0.38314,-0.11979 -0.35105,0.0408 0.19933,0.99751 0.36079,0.62716 0.78169,1.59586 0.93532,2.15267 0.54451,1.97348 -0.30732,2.14919 -5.40724,1.11543 -3.91132,-0.79284 -9.00936,-2.39976 -13.06174,-4.11711 l -3.02753,-1.28303 0.16105,3.88512 c 0.0886,2.13682 0.28175,6.92122 0.42927,10.632 0.14751,3.71078 0.33358,7.0743 0.4135,7.47448 0.14128,0.70748 0.19465,0.72761 1.93008,0.72761 4.68604,0 12.82286,-2.29703 18.63134,-5.25965 5.9845,-3.05239 9.61115,-5.52422 19.09703,-13.01603 6.17688,-4.8784 10.23831,-6.49525 16.13959,-6.42515 3.72928,0.0443 6.14257,0.59629 9.51364,2.17603 10.31442,4.8335 15.03126,14.83995 13.62895,28.91291 -2.17788,21.85633 -13.04243,39.76917 -28.69884,47.31697 -10.31292,4.971747 -21.04887,5.729117 -31.40633,2.21555 -7.36843,-2.4996 -12.9051,-6.88978 -21.13975,-16.7623 -6.54206,-7.84328 -10.77401,-11.49805 -16.79152,-14.50137 -5.03488,-2.5129 -10.16141,-3.8986 -20.27503,-5.48035 -6.88075,-1.07613 -12.13211,-2.19665 -15.60235,-3.32919 -3.40661,-1.11177 -9.01158,-3.85457 -11.85089,-5.79925 -4.60478,-3.15387 -9.27592,-8.12575 -11.75033,-12.50683 l -1.22648,-2.17155 -10e-6,6.35353 -10e-6,6.35353 0.96804,1.45168 c 1.3995,2.09868 5.44465,6.03728 7.86844,7.66117 4.57098,3.06248 9.91394,5.17164 18.01872,7.11296 2.47386,0.59256 6.58151,1.57499 9.12813,2.18318 6.27432,1.49845 9.97674,2.79349 14.68437,5.13633 7.13615,3.55145 11.46704,7.26808 18.80178,16.13512 6.22689,7.52773 9.92304,11.134437 14.5871,14.234107 8.73609,5.80589 21.13488,8.36783 31.67707,6.54539 11.61858,-2.00851 26.24996,-10.49344 34.6987,-20.122217 3.96072,-4.51392 6.07161,-7.6779 8.95351,-13.4203 3.8216,-7.61483 6.10838,-14.40775 7.17312,-21.30786 0.60965,-3.95087 0.44569,-19.97532 -0.24156,-23.60829 -0.6277,-3.31817 -2.21935,-7.87289 -3.61337,-10.34007 -2.3469,-4.15365 -7.69085,-8.85521 -13.21448,-11.62597 -4.13751,-2.07548 -7.18664,-2.80493 -11.73555,-2.80756 -5.25876,-0.003 -8.1843,0.72651 -12.88686,3.21364 -4.66178,2.46556 -6.61471,3.35275 -8.03049,3.64816 -1.5888,0.33151 -2.46129,0.048 -2.69294,-0.87492 -0.23848,-0.95018 0.37866,-1.53841 2.35239,-2.24221 0.90218,-0.32171 3.12861,-1.40053 4.94762,-2.39738 6.34835,-3.47902 9.8967,-4.47622 15.9523,-4.48309 2.29914,-0.003 4.40365,0.15013 5.68854,0.41288 6.54674,1.33874 12.9341,4.78952 17.81777,9.62606 4.52216,4.4785 6.99743,9.25389 8.43073,16.26491 0.93646,4.58069 1.10172,9.32787 0.99082,28.46076 -0.10113,17.44606 -0.12659,18.21954 -0.6806,20.67945 -1.22265,5.42871 -4.02437,12.11864 -6.71092,16.02427 -1.79437,2.60861 -5.55533,6.434007 -8.33472,8.477537 -1.19237,0.87669 -4.22847,2.81841 -6.74687,4.31494 -6.26499,3.72289 -11.75725,7.04357 -20.18934,12.206671 -21.9289,13.42741 -28.74893,17.01317 -35.88285,18.86603 -2.29543,0.59619 -3.41962,0.72625 -6.84736,0.7922 -2.25557,0.0434 -4.51776,0.0268 -5.02708,-0.0368 z m 11.04533,-4.04467 c 1.19998,-0.29809 3.26519,-0.9604 4.58934,-1.47179 2.49325,-0.96289 10.3814,-4.88359 11.25375,-5.59352 0.47002,-0.38251 0.46136,-0.39459 -0.16551,-0.23099 -1.67521,0.43718 -8.9085,0.44648 -11.99293,0.0154 -7.32146,-1.02322 -15.74129,-4.20269 -21.70675,-8.19684 -5.23495,-3.505041 -8.72724,-6.793311 -16.60205,-15.632131 -9.90429,-11.116737 -15.43242,-15.841867 -22.87845,-19.555197 -3.83641,-1.91321 -5.50066,-2.55088 -14.43463,-5.53071 -9.92029,-3.30881 -13.44721,-4.92635 -17.43901,-7.99797 -1.81052,-1.39316 -1.71236,-1.58626 -1.30272,2.56262 0.28594,2.89596 0.53989,4.43688 1.25058,7.5884 0.33531,1.48689 0.59405,2.049 1.11161,2.41497 1.32182,0.93468 7.27568,3.77387 11.74454,5.60056 12.37226,5.05731 18.61663,9.778447 28.47897,21.531907 1.9537,2.32834 5.70115,6.415011 8.32766,9.081491 9.89018,10.0407 16.19116,13.75163 26.6036,15.66805 3.67589,0.67655 9.89897,0.55633 13.162,-0.25426 z m 15.73018,-10.73479 c 4.37359,-0.57735 8.20194,-1.58706 10.91653,-2.87918 1.31578,-0.6263 5.78561,-3.22173 9.93296,-5.767611 4.14734,-2.54589 10.81484,-6.5728 14.81666,-8.94869 4.00182,-2.37589 8.22854,-4.98445 9.39271,-5.7968 5.83184,-4.069407 9.80363,-9.379057 12.71852,-17.002587 1.73634,-4.54117 2.25013,-7.21206 2.38373,-12.39166 0.0761,-2.95061 0.0306,-4.43825 -0.12553,-4.10104 -0.13473,0.29104 -0.69665,1.71979 -1.24872,3.175 -2.07866,5.47923 -6.15009,12.79916 -9.58783,17.23777 -8.56825,11.062787 -22.74496,20.515597 -35.82645,23.888507 -12.77336,3.29346 -27.18876,0.90414 -37.90754,-6.28308 -5.13723,-3.44465 -8.39241,-6.5684 -14.66551,-14.073407 -6.33175,-7.57516 -10.25548,-11.30505 -14.95865,-14.21961 -4.96582,-3.07733 -11.33729,-5.39959 -20.50597,-7.474 -10.41082,-2.35543 -15.18702,-3.7969 -19.83231,-5.98543 -3.48989,-1.64418 -7.39237,-4.31432 -9.98386,-6.83112 l -2.19841,-2.13504 v 5.18952 5.18952 l 1.27244,1.19022 c 2.85741,2.67277 6.4664,4.92718 10.63381,6.64255 1.23692,0.50914 5.5827,2.02466 9.65729,3.36784 8.49075,2.79894 11.79427,4.14112 15.82505,6.42951 6.30894,3.58176 13.34499,9.76411 20.81942,18.293327 7.00684,7.99565 11.79656,12.53943 16.63408,15.77998 4.39329,2.942971 10.19516,5.412501 16.37218,6.968721 3.77808,0.95184 10.54268,1.18663 15.4654,0.53679 z m -63.0822,-7.888441 c -1.78668,-2.08189 -4.10115,-4.79056 -5.14326,-6.01927 -2.85036,-3.36076 -8.3713,-8.65713 -11.20213,-10.74647 -3.65593,-2.698327 -7.3799,-4.809477 -11.54602,-6.545527 -2.01714,-0.84056 -5.32848,-2.26123 -7.35854,-3.15703 -2.03005,-0.89581 -3.79894,-1.67267 -3.93086,-1.72636 -0.13192,-0.0537 0.20332,0.60115 0.74497,1.45521 3.18564,5.02298 6.30861,8.47333 10.15971,11.224737 1.22347,0.8741 4.85487,3.15083 8.0698,5.0594 10.42518,6.18903 19.29374,11.549161 21.32344,12.887841 1.0914,0.71983 2.01745,1.31867 2.05789,1.33075 0.0404,0.0121 -1.38831,-1.6814 -3.175,-3.763281 z m 65.34445,-31.022247 c -2.63117,-0.40958 -7.08659,-1.82938 -9.37168,-2.98646 -5.04379,-2.55398 -10.04644,-6.93533 -16.36091,-14.32896 -8.73513,-10.22799 -14.51921,-14.40618 -22.52186,-16.26889 -2.32867,-0.54203 -7.31292,-1.11551 -13.85623,-1.59428 -9.50621,-0.69557 -12.58171,-1.17103 -17.3302,-2.67922 -8.98611,-2.85411 -15.75662,-9.16591 -18.50738,-17.25347 -3.21629,-9.45628 -0.80851,-22.61355 5.725,-31.28417 4.63758,-6.15454 11.50601,-9.71148 19.71443,-10.20948 3.06274,-0.18581 4.04815,0.14909 4.04815,1.37581 0,1.16429 -0.85612,1.71369 -2.67041,1.71369 -2.02058,0 -6.32935,0.86574 -8.65638,1.73929 -7.37154,2.76721 -12.74205,9.44999 -15.18725,18.89822 -1.09288,4.22288 -1.31919,10.24562 -0.52822,14.05732 1.45831,7.02762 5.95558,12.7283 12.69399,16.09073 5.13633,2.56299 9.08845,3.37723 21.24504,4.37702 12.72143,1.04624 16.67185,1.85373 21.89009,4.47449 5.02097,2.52168 9.44118,6.44969 16.85197,14.97544 7.98522,9.18661 12.15584,12.41267 18.78721,14.53231 3.59554,1.14927 5.93652,1.43771 10.25353,1.26334 4.93228,-0.19922 7.87503,-0.98042 11.74916,-3.11899 7.00745,-3.86819 11.80582,-9.60479 15.25949,-18.24318 2.98318,-7.46157 3.46945,-13.39132 1.52053,-18.5421 -1.5954,-4.2165 -5.90467,-7.69782 -10.38039,-8.386 -4.50847,-0.6932 -9.59329,0.99087 -15.43774,5.11293 -13.12165,9.25464 -21.38546,12.93568 -31.80056,14.16529 -2.95222,0.34855 -4.03439,-0.0264 -4.04642,-1.40183 -0.008,-0.91709 0.92494,-1.46589 2.81663,-1.65683 3.21765,-0.32479 7.23562,-1.19657 10.64687,-2.31007 5.88471,-1.92088 10.77615,-4.67239 21.06057,-11.8469 3.22872,-2.25239 6.7045,-4.00831 9.525,-4.81191 2.94719,-0.83969 7.67489,-0.82182 10.18646,0.0385 2.69323,0.92257 4.46483,2.05687 6.6578,4.26279 2.40025,2.41443 3.84504,5.11193 4.74007,8.84993 1.63784,6.84034 -1.31202,18.13561 -6.94438,26.59063 -4.17031,6.26025 -11.33398,11.62374 -18.04559,13.51087 -4.50682,1.26719 -9.31688,1.58052 -13.72639,0.89413 z m -0.78995,-11.22104 c -4.95185,-0.90352 -9.18853,-3.73364 -10.94428,-7.31085 -0.60151,-1.22554 -0.76165,-1.90334 -0.74404,-3.14916 0.0538,-3.80709 2.7515,-6.48753 11.64414,-11.56974 5.39067,-3.0808 8.03112,-4.19947 12.36427,-5.23835 8.14881,-1.95367 14.70441,1.92246 15.18817,8.98031 0.28319,4.13166 -1.30504,7.78523 -4.95548,11.39966 -3.32843,3.29559 -6.92802,5.18651 -12.15455,6.38499 -2.546,0.58381 -8.40287,0.86721 -10.39823,0.50314 z m 7.8041,-3.32646 c 7.77724,-1.36042 13.2063,-4.95496 15.76942,-10.44084 0.92074,-1.97067 0.97908,-5.15652 0.12354,-6.74687 -2.32486,-4.32166 -7.47645,-5.16139 -14.65538,-2.38889 -3.06937,1.18539 -4.39141,1.86934 -9.64053,4.98745 -4.47727,2.6596 -6.71947,4.40368 -7.43144,5.78049 -0.65136,1.25959 -0.47546,2.88608 0.4658,4.30712 1.54424,2.33138 4.30009,3.90639 8.28855,4.73703 1.25482,0.26133 4.94066,0.13873 7.08004,-0.23549 z m 52.85439,-74.66519 c -0.21481,-0.0844 -5.00865,-4.74817 -10.65297,-10.36401 -8.81508,-8.77059 -10.26191,-10.31863 -10.25891,-10.97657 0.003,-0.61239 0.53334,-1.30439 2.64631,-3.4516 l 2.64281,-2.68564 -1.38727,-1.37004 -1.38727,-1.37004 -2.68724,2.50654 c -3.80301,3.54728 -3.6972,3.56283 -8.72789,-1.28309 l -1.62799,-1.5682 -1.08398,0.87111 c -0.5962,0.47911 -1.08399,0.90348 -1.08399,0.94305 0,0.0396 0.66773,1.0019 1.48385,2.13853 1.76179,2.45369 2.75258,4.35123 3.73246,7.14836 0.67258,1.91991 0.72285,2.36278 0.72958,6.42761 0.006,3.67768 -0.0662,4.49989 -0.45852,5.21768 -0.90604,1.65748 -1.72501,1.74894 -4.35875,0.48676 -3.02952,-1.45186 -6.37927,-3.85751 -11.0444,-7.9316 l -1.48987,-1.30111 -1.67369,1.65881 c -1.19272,1.18211 -1.63618,1.80222 -1.54317,2.15786 0.24118,0.92231 -0.20816,2.33073 -0.99447,3.11704 -1.44261,1.44262 -3.76206,1.30143 -5.25696,-0.32 -0.92113,-0.99909 -1.07325,-3.01314 -0.31968,-4.23245 0.64752,-1.04771 2.36396,-1.86906 3.43777,-1.64504 0.56963,0.11883 1.00296,-0.13783 2.48007,-1.46896 l 1.78985,-1.61295 -1.45681,-1.57352 c -2.91953,-3.15344 -6.1422,-7.74296 -7.91021,-11.26519 -1.51444,-3.01708 -1.28146,-4.0283 1.09731,-4.76274 1.12021,-0.34585 2.34242,-0.46104 4.69002,-0.44199 2.69107,0.0218 3.51778,0.13616 5.42396,0.75012 2.70317,0.87067 5.55635,2.35633 7.71439,4.01691 l 1.58982,1.22333 1.03478,-1.01044 1.03479,-1.01044 -2.54553,-2.59093 c -3.2639,-3.3221 -3.2651,-3.30141 0.39716,-6.86429 l 2.61901,-2.54794 -1.2163,-1.2163 -1.21631,-1.21631 -2.55218,2.50747 c -2.04431,2.0085 -2.70549,2.50747 -3.32261,2.50747 -0.65847,0 -1.88506,-1.12463 -8.44064,-7.73906 -12.69938,-12.81337 -13.1576,-13.30838 -12.96684,-14.00762 0.24474,-0.89714 13.08945,-13.4429 13.76323,-13.4429 0.36398,0 4.02642,3.48618 11.05699,10.52488 8.1268,8.13619 10.51274,10.67227 10.51274,11.17432 0,0.47142 -0.76248,1.4143 -2.78152,3.43962 l -2.78152,2.79017 1.19474,1.17255 1.19474,1.17255 4.71231,-4.686 c 4.79547,-4.7687 5.12485,-4.99652 6.45903,-4.46757 0.77312,0.30652 12.65221,12.30695 12.81176,12.94263 0.32677,1.30198 -0.22279,2.069 -4.68724,6.54191 l -4.48094,4.48945 1.38241,1.3998 1.38242,1.39981 2.7014,-2.6922 c 2.27739,-2.26964 2.83197,-2.6922 3.53332,-2.6922 0.74235,0 1.95507,1.12287 11.26217,10.42774 10.5282,10.52566 10.95511,11.02729 10.22776,12.01791 -0.10692,0.1456 -3.06872,3.0924 -6.58178,6.54843 -6.1521,6.05222 -6.71989,6.49762 -7.76151,6.08852 z m 4.47176,-7.42104 c 0.0698,-0.0416 -0.49266,-0.6952 -1.24995,-1.4525 l -1.3769,-1.37689 -1.91165,1.91165 -1.91166,1.91165 1.30847,1.32844 1.30846,1.32844 1.85314,-1.7876 c 1.01923,-0.98318 1.91027,-1.82162 1.98009,-1.86319 z m -6.72481,-3.23393 1.84011,-1.85432 -1.58262,-1.57146 -1.58262,-1.57146 -1.94719,1.86748 -1.9472,1.86748 1.54204,1.5583 c 0.84812,0.85706 1.60849,1.55829 1.6897,1.55829 0.0812,0 0.97572,-0.83444 1.98778,-1.85431 z m -29.72036,-1.16993 c -1.49099,-3.18618 -3.78431,-6.07512 -9.12638,-11.49669 -4.14525,-4.20693 -6.54758,-6.32472 -8.89894,-7.8449 -1.70504,-1.10233 -3.71799,-2.08231 -3.71799,-1.81006 0,0.33212 2.19093,3.83193 3.49007,5.57505 1.83712,2.46498 5.24207,6.43001 5.52174,6.43001 0.11956,0 0.29096,-0.11906 0.3809,-0.26458 0.0899,-0.14552 0.56902,-0.26459 1.06464,-0.26459 1.32641,0 1.93787,1.4024 1.04273,2.39152 -0.37191,0.41096 -0.27705,0.56687 1.12448,1.84831 3.10861,2.84223 9.51235,7.57812 9.82466,7.26582 0.0563,-0.0564 -0.26131,-0.87981 -0.70591,-1.82989 z m 40.79188,0.1501 1.81331,-1.7986 -1.41644,-1.35818 -1.41644,-1.35819 -1.84594,1.83861 -1.84594,1.83861 1.30683,1.32678 c 0.71875,0.72973 1.37083,1.32291 1.44906,1.31817 0.0782,-0.005 0.95823,-0.81797 1.95556,-1.8072 z m -16.29257,-7.90147 -1.64645,-1.66123 -1.92492,1.91208 -1.92492,1.91207 1.64646,1.66122 1.64646,1.66123 1.92492,-1.91207 1.92491,-1.91207 z m 13.02404,1.23109 c 0,-0.11629 -0.68841,-0.92378 -1.52981,-1.7944 l -1.52982,-1.58297 -1.92413,1.87527 -1.92414,1.87527 1.62262,1.63717 1.62263,1.63718 1.83133,-1.71804 c 1.00723,-0.94492 1.83132,-1.81318 1.83132,-1.92948 z m -17.78566,-5.99404 -0.84643,-0.87329 -1.85535,1.78978 c -1.02044,0.98438 -1.91,1.82133 -1.9768,1.85989 -0.0668,0.0386 0.28248,0.48687 0.77619,0.99625 l 0.89765,0.92614 1.92558,-1.91274 1.92559,-1.91274 z m 12.39317,0.58961 c 0.0253,0 -0.65269,-0.77391 -1.5066,-1.7198 l -1.55258,-1.71979 -1.92043,1.91521 -1.92043,1.91522 1.57474,1.59134 1.57473,1.59133 1.8523,-1.78675 c 1.01877,-0.98272 1.87299,-1.78676 1.89827,-1.78676 z m -7.23042,-3.78083 1.78269,-1.79646 -0.93326,-0.90454 -0.93325,-0.90455 -1.77563,1.70881 c -0.9766,0.93985 -1.83015,1.74036 -1.89678,1.77892 -0.14385,0.0833 1.59691,1.91427 1.81991,1.91427 0.0845,0 0.95584,-0.8084 1.93632,-1.79645 z m -31.59826,-23.23361 -0.9018,-0.9018 -1.83561,1.84979 -1.83562,1.84978 0.84453,0.87133 0.84452,0.87133 1.8929,-1.81931 1.89289,-1.81931 z m -4.91726,-1.3696 1.77966,-1.7934 -1.58892,-1.57234 -1.58892,-1.57234 -1.85119,1.83701 -1.8512,1.83701 1.51278,1.52874 c 0.83203,0.8408 1.57924,1.52873 1.66046,1.52873 0.0812,0 0.94851,-0.80703 1.92733,-1.79341 z m 10.05719,-1.85513 1.78269,-1.79645 -0.93353,-0.90481 -0.93354,-0.90482 -1.84572,1.83158 -1.84572,1.83158 0.84294,0.86969 c 0.46361,0.47833 0.91206,0.86969 0.99656,0.86969 0.0845,0 0.95584,-0.80841 1.93632,-1.79646 z m -14.97821,-3.89208 1.40466,-1.32292 -1.63048,-1.67318 -1.63048,-1.67317 -1.86859,1.86859 -1.8686,1.8686 1.56799,1.58453 c 1.78342,1.80222 1.34342,1.87353 4.0255,-0.65245 z m 12.68314,-1.85209 c 0.025,0 -0.62658,-0.72804 -1.44797,-1.61787 l -1.49345,-1.61787 -1.9713,1.82114 -1.9713,1.82113 1.56697,1.5835 1.56697,1.58349 1.8523,-1.78676 c 1.01877,-0.98272 1.87277,-1.78676 1.89778,-1.78676 z m -18.54984,-3.30927 1.83985,-1.85406 -1.38436,-1.38437 -1.38437,-1.38437 -1.91165,1.91166 -1.91165,1.91165 1.30682,1.32678 c 0.71876,0.72972 1.37403,1.32677 1.45617,1.32677 0.0821,0 0.97727,-0.83432 1.98919,-1.85406 z m 11.77622,-3.82496 -1.58726,-1.58726 -1.83857,1.82448 -1.83857,1.82448 1.48463,1.69102 1.48464,1.69102 1.94119,-1.92824 1.9412,-1.92824 z m -5.30347,-5.303 -1.45762,-1.45763 -1.83902,1.85322 -1.83902,1.85322 1.44146,1.45959 1.44145,1.45959 1.85519,-1.85518 1.85518,-1.85519 z"
       id="path1" /></g><metadata
     id="metadata8"><rdf:RDF><cc:Work
         rdf:about=""><dc:title>logo_negro</dc:title></cc:Work></rdf:RDF></metadata></svg>
